<svg width="20" height="21" viewBox="0 0 20 21" fill="none" xmlns="http://www.w3.org/2000/svg">
<path fill-rule="evenodd" clip-rule="evenodd" d="M2.83931 7.24556C4.3292 5.75567 6.66714 4.25 10 4.25C13.3329 4.25 15.6708 5.75567 17.1607 7.24556C17.9038 7.9887 18.4397 8.73076 18.7906 9.28809C18.9664 9.56724 19.0966 9.80146 19.184 9.9683C19.2277 10.0518 19.2608 10.1185 19.2835 10.1657C19.2949 10.1893 19.3037 10.208 19.3099 10.2216L19.3174 10.2379L19.3197 10.2431L19.3206 10.2449L19.3209 10.2456C19.321 10.2459 19.3211 10.2462 18.75 10.5C19.3211 10.7538 19.321 10.7541 19.3209 10.7544L19.3206 10.7551L19.3197 10.7569L19.3174 10.7621L19.3099 10.7784C19.3037 10.792 19.2949 10.8107 19.2835 10.8343C19.2608 10.8815 19.2277 10.9482 19.184 11.0317C19.0966 11.1985 18.9664 11.4328 18.7906 11.7119C18.4397 12.2692 17.9038 13.0113 17.1607 13.7544C15.6708 15.2443 13.3329 16.75 10 16.75C6.66714 16.75 4.3292 15.2443 2.83931 13.7544C2.09617 13.0113 1.5603 12.2692 1.20939 11.7119C1.03362 11.4328 0.903373 11.1985 0.815984 11.0317C0.772267 10.9482 0.739205 10.8815 0.716476 10.8343C0.705109 10.8107 0.696319 10.792 0.690066 10.7784L0.682582 10.7621L0.680256 10.7569L0.679445 10.7551L0.679127 10.7544C0.678993 10.7541 0.678868 10.7538 1.25 10.5C0.678868 10.2462 0.678993 10.2459 0.679127 10.2456L0.679445 10.2449L0.680256 10.2431L0.682582 10.2379L0.690066 10.2216C0.696319 10.208 0.705109 10.1893 0.716476 10.1657C0.739205 10.1185 0.772267 10.0518 0.815984 9.9683C0.903373 9.80146 1.03362 9.56724 1.20939 9.28809C1.5603 8.73076 2.09617 7.9887 2.83931 7.24556ZM1.25 10.5L0.678868 10.2462C0.607044 10.4078 0.607044 10.5922 0.678868 10.7538L1.25 10.5ZM1.94882 10.5C2.02235 10.6377 2.12794 10.8248 2.26718 11.0459C2.58033 11.5433 3.06008 12.2074 3.72319 12.8706C5.0458 14.1932 7.08286 15.5 10 15.5C12.9171 15.5 14.9542 14.1932 16.2768 12.8706C16.9399 12.2074 17.4197 11.5433 17.7328 11.0459C17.8721 10.8248 17.9777 10.6377 18.0512 10.5C17.9777 10.3623 17.8721 10.1752 17.7328 9.9541C17.4197 9.45674 16.9399 8.79255 16.2768 8.12944C14.9542 6.80683 12.9171 5.5 10 5.5C7.08286 5.5 5.0458 6.80683 3.72319 8.12944C3.06008 8.79255 2.58033 9.45674 2.26718 9.9541C2.12794 10.1752 2.02235 10.3623 1.94882 10.5ZM18.75 10.5L19.3211 10.7538C19.393 10.5922 19.393 10.4078 19.3211 10.2462L18.75 10.5Z" fill="#5F5B62"/>
<path fill-rule="evenodd" clip-rule="evenodd" d="M10 8C8.61929 8 7.5 9.11929 7.5 10.5C7.5 11.8807 8.61929 13 10 13C11.3807 13 12.5 11.8807 12.5 10.5C12.5 9.11929 11.3807 8 10 8ZM6.25 10.5C6.25 8.42893 7.92893 6.75 10 6.75C12.0711 6.75 13.75 8.42893 13.75 10.5C13.75 12.5711 12.0711 14.25 10 14.25C7.92893 14.25 6.25 12.5711 6.25 10.5Z" fill="#5F5B62"/>
</svg>
